<svg width="77" height="77" viewBox="0 0 77 77" fill="none" xmlns="http://www.w3.org/2000/svg">
<path d="M37.7193 27.3195C37.1431 27.3359 36.6071 27.3359 36.0173 27.3359C36.0173 25.9827 36.0173 24.6607 36.0173 23.2999C35.415 23.2999 34.8654 23.2999 34.2759 23.2999C34.2759 22.8136 34.2759 22.3657 34.2759 21.905C36.0343 21.905 37.7886 21.905 39.5671 21.905C39.5671 22.3612 39.5671 22.796 39.5671 23.2796C38.9826 23.2796 38.4181 23.2796 37.7594 23.2796C37.7594 24.6527 37.7594 25.978 37.7193 27.3195Z" fill="#EA5B26"/>
<path d="M38.6723 55.0102C38.6723 55.4188 38.6723 55.7806 38.6723 56.1732C38.0891 56.1732 37.5437 56.1732 36.9513 56.1732C36.9513 55.5079 36.9513 54.8513 36.9513 54.1625C36.2969 54.1625 35.688 54.1625 35.0317 54.1625C35.0317 54.8132 35.0317 55.4719 35.0317 56.1673C34.4258 56.1673 33.866 56.1673 33.2755 56.1673C33.2755 54.3704 33.2755 52.5874 33.2755 50.767C33.8319 50.767 34.3911 50.767 35.0081 50.767C35.0081 51.4016 35.0081 52.0413 35.0081 52.7006C35.6619 52.7006 36.2595 52.7006 36.9122 52.7006C36.9122 52.0691 36.9122 51.4299 36.9122 50.7608C37.5133 50.7608 38.0603 50.7608 38.6723 50.7608C38.6723 52.1563 38.6723 53.5598 38.6723 55.0102Z" fill="#EC5C26"/>
<path d="M35.7875 32.6304C36.6909 32.6329 37.5468 32.6352 38.4026 32.6393C38.4312 32.6395 38.4596 32.6589 38.5144 32.679C38.5144 33.0729 38.5144 33.4754 38.5144 33.9202C37.5461 33.9202 36.6006 33.9202 35.6197 33.9202C35.6197 34.1723 35.6197 34.3843 35.6197 34.6423C36.4055 34.6423 37.2068 34.6423 38.0476 34.6423C38.0476 35.088 38.0476 35.49 38.0476 35.9525C37.2516 35.9525 36.4379 35.9525 35.6049 35.9525C35.6049 36.2436 35.6049 36.4756 35.6049 36.7703C36.5785 36.7703 37.5486 36.7703 38.547 36.7703C38.547 37.2341 38.547 37.636 38.547 38.063C36.9674 38.063 35.406 38.063 33.8174 38.063C33.8174 36.2683 33.8174 34.4844 33.8174 32.6304C34.4556 32.6304 35.0978 32.6304 35.7875 32.6304Z" fill="#EE5A24"/>
<path d="M34.8597 43.1977C34.8423 43.5699 34.8171 43.9024 34.8237 44.2342C34.839 45.0021 35.1348 45.3851 35.7434 45.4549C36.3563 45.5252 36.7035 45.234 36.9117 44.442C37.3092 44.442 37.7188 44.4401 38.1283 44.4433C38.2358 44.4442 38.3432 44.4611 38.4468 44.4703C38.5187 45.32 38.1316 46.0445 37.4269 46.4195C36.2818 47.0288 34.0914 46.8811 33.4379 45.6603C32.8266 44.5186 32.812 43.3304 33.447 42.2145C33.6677 41.8267 34.1341 41.5036 34.5612 41.3245C35.3857 40.9787 36.2677 41.0057 37.1146 41.3099C38.0191 41.6348 38.5246 42.4439 38.4417 43.3908C38.3543 43.3996 38.2626 43.4163 38.1709 43.4169C37.7299 43.4197 37.289 43.4181 36.8306 43.4181C36.7562 42.8533 36.5332 42.4487 35.9295 42.4052C35.4059 42.3674 35.1091 42.5787 34.8597 43.1977Z" fill="#EC5B26"/>
<path d="M4.06925 40.5779C4.26499 43.3803 4.87468 46.0514 5.75803 48.6651C5.84252 48.9152 5.92776 49.1649 6.04739 49.5171C5.4973 49.201 5.02756 48.9542 4.58709 48.6632C4.46458 48.5822 4.40745 48.377 4.35625 48.2172C3.42863 45.3228 2.90657 42.3587 2.75715 39.3203C2.57839 35.6855 2.92764 32.1125 3.86283 28.5965C5.33731 23.0531 7.96732 18.1357 11.8462 13.8991C12.4125 13.2806 13.0162 12.6965 13.5881 12.083C13.8141 11.8405 14.0497 11.7531 14.3855 11.7971C14.7411 11.8437 15.1075 11.8075 15.4692 11.8075C15.504 11.8544 15.5387 11.9013 15.5734 11.9483C15.3326 12.1518 15.0824 12.3452 14.8523 12.5603C9.70154 17.3734 6.31149 23.2013 4.74567 30.0841C4.30996 31.9993 4.00009 33.9315 3.98548 35.8967C3.97398 37.4422 4.03632 38.9882 4.06925 40.5779Z" fill="#E85925"/>
<path d="M17.0054 58.8348C17.2994 58.4486 17.6165 58.0883 17.9688 57.75C18.1482 57.9375 18.27 58.1316 18.44 58.2641C19.8716 59.3802 21.2493 60.5806 22.7628 61.5731C25.8649 63.6073 29.2946 64.8833 32.9597 65.4486C34.4642 65.6806 36.0003 65.7077 37.522 65.828C37.5162 66.2809 37.5104 66.7338 37.5057 67.23C35.5117 67.241 33.5321 67.0555 31.5788 66.6391C26.891 65.6398 22.6733 63.656 18.9829 60.5831C18.3158 60.0276 17.6791 59.4358 17.0054 58.8348Z" fill="#E95925"/>
<path d="M60.558 12.0615C55.6646 7.7445 50.0223 5.06479 43.4974 3.93347C44.1156 3.60468 44.6078 3.24452 45.1581 3.08658C45.4945 2.99002 45.9234 3.19023 46.3051 3.2809C49.7481 4.09875 53.0087 5.39281 56.0079 7.26231C57.7086 8.32236 59.2867 9.57934 60.9119 10.7589C61.0245 10.8406 61.1152 11.0095 61.1364 11.1498C61.2093 11.6326 61.2467 12.1208 61.3085 12.7102C61.0198 12.4615 60.8012 12.2731 60.558 12.0615Z" fill="#E75926"/>
<path d="M37.5809 70.0432C37.6601 69.9058 37.7851 69.7898 37.9778 69.6667C39.4159 69.5591 40.7979 69.5395 42.1544 69.3439C47.5487 68.566 52.4416 66.5368 56.7777 63.2303C57.94 62.344 58.9852 61.3041 60.0842 60.3347C60.2389 60.327 60.3937 60.3194 60.5857 60.2999C60.2437 60.711 59.897 61.1693 59.4803 61.5513C56.5557 64.2318 53.2513 66.3226 49.5731 67.8073C47.3961 68.6862 45.1476 69.3568 42.8169 69.6529C41.0972 69.8714 39.3575 69.933 37.5809 70.0432Z" fill="#DB5B2A"/>
<path d="M37.2184 11.6723C34.225 11.814 31.3745 12.3962 28.6376 13.5133C25.3111 14.871 22.3806 16.8175 19.8758 19.3951C19.3045 19.983 18.7664 20.603 18.1825 21.2416C17.7338 20.8824 17.2803 20.5193 16.7743 20.1142C19.9052 16.2035 23.7902 13.3815 28.4185 11.6153C34.7959 9.18153 41.2147 9.2317 47.6929 11.4849C47.4778 12.0715 47.2744 12.6266 47.0515 13.2344C43.8774 12.0661 40.6165 11.5751 37.2184 11.6723Z" fill="#E95925"/>
<path d="M64.9931 31.4094C65.341 33.0596 65.5457 34.6857 65.5903 36.3706C64.9781 36.3706 64.4012 36.3706 63.7634 36.3706C63.646 33.4434 63.0673 30.5982 61.9838 27.8263C62.562 27.6027 63.1153 27.3888 63.7812 27.1313C64.1937 28.5845 64.5891 29.9773 64.9931 31.4094Z" fill="#E95925"/>
<path d="M24.6158 21.8501C23.8856 21.8783 23.1222 21.8855 22.314 21.8963C23.0403 21.8763 23.8114 21.8527 24.6158 21.8501Z" fill="#459385"/>
<path d="M16.9822 58.8089C16.8463 58.9102 16.7103 59.0115 16.5236 59.1507C13.6906 56.3919 11.5052 53.1873 9.91845 49.5629C8.21594 45.6739 7.3796 41.5807 7.46887 37.3656C7.64175 29.2017 10.5668 22.121 16.3993 16.3521C22.2167 10.5981 29.2937 7.76922 37.5034 7.62283C37.5034 6.84703 37.5034 6.09309 37.5034 5.24994C45.2604 5.34607 52.1702 7.69455 58.0903 12.6366C65.9259 19.1775 69.7982 27.6456 69.9892 37.893C68.9321 37.893 67.9422 37.893 66.8985 37.893C66.7873 45.7605 64.0342 52.5256 58.6588 58.2799C59.3087 58.9416 59.9478 59.5924 60.5676 60.2774C60.3937 60.3194 60.2389 60.327 60.065 60.3086C58.7975 59.0485 57.5492 57.8143 56.277 56.5567C58.8356 53.9763 60.7978 51.0829 62.1473 47.7855C63.4944 44.494 64.1427 41.0614 64.1291 37.4642C65.9517 37.4642 67.7059 37.4642 69.5497 37.4642C69.3106 28.3527 66.0461 20.6175 59.4418 14.3872C53.4376 8.72285 46.2418 5.8979 37.9386 5.67648C37.9386 6.5318 37.9386 7.2854 37.9386 8.05547C30.8288 8.0631 24.4698 10.1545 18.9626 14.6134C13.4651 19.0644 9.93939 24.7716 8.52016 31.7096C7.21607 38.0848 7.93179 44.2631 10.6651 50.183C12.1174 53.3283 14.0802 56.1195 16.5108 58.5374C16.9093 58.1583 17.2584 57.8355 17.5968 57.5017C17.9334 57.1698 18.2591 56.827 18.5984 56.48C24.0326 61.6303 30.4562 64.2529 37.9575 64.2951C37.9575 66.0943 37.9575 67.8663 37.9338 69.656C37.785 69.7897 37.6601 69.9057 37.5351 70.0217C37.5311 69.1357 37.5271 68.2497 37.5137 67.2752C37.5102 66.7338 37.5161 66.2809 37.5247 65.7865C37.5276 65.4047 37.5276 65.0643 37.5276 64.7057C33.9557 64.6592 30.5823 64.0356 27.3455 62.7105C24.1014 61.3824 21.2289 59.4854 18.7039 57.0555C18.4406 57.2957 18.2198 57.4973 17.9662 57.7134C17.6164 58.0883 17.2993 58.4486 16.9822 58.8089ZM60.0673 52.5959C59.0348 53.9291 58.0024 55.2623 56.9544 56.6156C57.163 56.8145 57.3977 57.0384 57.6614 57.2899C62.7649 51.8344 65.3606 45.4348 65.4882 38.0021C65.1314 38.0021 64.8531 38.0021 64.5466 38.0021C64.4509 43.2845 62.982 48.1286 60.0673 52.5959Z" fill="white"/>
<path d="M11.5531 43.6462C10.8476 40.5868 10.615 37.5349 10.9404 34.4461C11.2127 31.8623 11.8305 29.3643 12.7955 26.9522C12.8239 26.8813 12.869 26.817 12.9283 26.7099C13.4756 26.942 14.0097 27.1684 14.5301 27.3891C10.8843 37.4167 12.4882 46.4661 19.4371 54.6914C19.2516 54.8482 19.0142 55.0298 18.7999 55.2354C18.5846 55.442 18.3922 55.6725 18.1706 55.9133C14.8948 52.3556 12.7151 48.2982 11.5531 43.6462Z" fill="white"/>
<path d="M14.0877 34.5567C15.0124 27.5458 18.2864 21.9392 23.9752 17.8275C28.6531 14.4463 33.9353 12.9971 39.7081 13.3864C43.6777 13.654 47.355 14.8413 50.7147 16.961C55.3174 19.8648 58.6434 23.8537 60.521 28.9681C62.9287 35.5264 62.6354 42.0276 59.4422 48.232C55.6565 55.5874 49.5497 59.9601 41.3545 61.1886C34.8209 62.168 28.8184 60.5929 23.5523 56.622C18.044 52.4684 14.8839 46.8861 14.0683 40.0097C13.8544 38.2059 13.8772 36.4024 14.0877 34.5567ZM33.3721 60.6424C35.9613 61.1649 38.5658 61.231 41.1783 60.8657C44.4721 60.4051 47.5332 59.286 50.361 57.5374C52.7834 56.0395 54.8693 54.1661 56.6473 51.8503C56.4831 51.739 56.3287 51.6345 56.1556 51.5171C58.7539 48.1486 60.2674 44.4033 60.8358 40.2719C61.0338 40.2632 61.1871 40.2565 61.3331 40.2501C62.787 34.1439 58.6572 23.1799 53.6717 19.8969C53.5637 19.9967 53.4528 20.0992 53.3261 20.2164C50.6786 17.8557 47.6573 16.2139 44.2928 15.2438C44.3155 15.0303 44.3314 14.881 44.3499 14.7083C39.4214 13.3701 34.5957 13.5298 29.7938 15.2465C29.8447 15.3919 29.8717 15.4652 29.8959 15.5394C29.9194 15.6115 29.9399 15.6845 29.9688 15.7809C23.6533 18.2854 19.1745 22.6486 16.559 28.9086C16.3479 28.8404 16.1721 28.7835 15.9469 28.7108C14.0999 33.4569 13.7393 38.28 14.9766 43.1878C16.2172 48.1089 18.7959 52.2221 22.703 55.5589C22.87 55.3537 23.0094 55.1825 23.0675 55.1111C24.8964 56.2586 26.6752 57.3747 28.4804 58.5072C28.4406 58.6166 28.3678 58.817 28.291 59.0282C29.9195 59.7662 31.5748 60.2933 33.3721 60.6424Z" fill="white"/>
<path d="M37.6907 71.6399C42.3865 71.6371 46.8703 70.7943 51.1719 68.9887C51.1083 69.8232 50.5864 70.5358 49.8645 70.7858C46.307 72.0178 42.6556 72.728 38.8839 72.8166C32.0847 72.9763 25.7576 71.3281 19.9078 67.8722C16.7452 66.0039 13.9678 63.6579 11.5445 60.898C11.4064 60.7408 11.3404 60.4832 11.3225 60.2657C11.2882 59.848 11.3125 59.4255 11.3665 58.9925C18.2829 67.1073 26.993 71.3878 37.6907 71.6399Z" fill="white"/>
<path d="M71.9733 35.228C71.755 32.301 71.2072 29.4824 70.2624 26.6281C70.7727 26.8473 71.1862 26.9985 71.5697 27.2051C71.6931 27.2716 71.767 27.4757 71.8137 27.6318C72.8582 31.1227 73.2889 34.6921 73.2227 38.333C73.1229 43.8199 71.7747 48.9827 69.2683 53.8515C68.935 54.499 68.5529 55.1215 68.1858 55.7511C68.1246 55.8561 68.0417 55.9811 67.9386 56.0236C67.4023 56.2443 66.8561 56.4413 66.1938 56.6918C70.5352 50.1182 72.4418 43.0111 71.9733 35.228Z" fill="white"/>
<path d="M56.0747 57.9835C51.1103 62.1962 45.4006 64.3776 38.8615 64.6254C38.89 63.9894 38.9158 63.412 38.9441 62.7818C45.0244 62.5715 50.3502 60.4446 55.0473 56.4724C55.4347 56.8872 55.8129 57.2827 56.1732 57.6938C56.2067 57.732 56.1267 57.8695 56.0747 57.9835Z" fill="white"/>
<path d="M55.027 41.1923C56.2232 41.2858 56.8772 42.1772 56.4198 43.1437C56.2874 43.4234 55.9969 43.6282 55.7889 43.8563C56.6939 44.3502 56.9773 45.2658 56.4132 46.0392C56.1217 46.439 55.7098 46.6377 55.2291 46.6435C53.9779 46.6585 52.7264 46.6486 51.3972 46.6486C51.3972 44.866 51.3972 43.0992 51.4384 41.2768C52.6621 41.2116 53.8445 41.2019 55.027 41.1923ZM53.1559 44.6872C53.1559 44.9176 53.1559 45.148 53.1559 45.4002C53.6525 45.4002 54.0835 45.4393 54.5004 45.3796C54.6525 45.3579 54.8385 45.1182 54.882 44.9459C54.9129 44.8233 54.7323 44.5173 54.644 44.5164C54.1517 44.5116 53.6588 44.5749 53.1559 44.6872ZM54.0788 42.3708C53.7862 42.3708 53.4936 42.3708 53.1923 42.3708C53.1923 42.7212 53.1923 43.008 53.1923 43.3248C53.5281 43.3248 53.8256 43.3175 54.1226 43.3268C54.445 43.337 54.7462 43.3127 54.7682 42.8982C54.7903 42.4819 54.534 42.3526 54.0788 42.3708Z" fill="white"/>
<path d="M43.0656 34.4097C43.3117 34.6917 43.5357 34.9479 43.8467 35.3038C43.8467 34.3437 43.8467 33.5151 43.8467 32.6572C44.3967 32.6572 44.8961 32.6572 45.4321 32.6572C45.4321 34.4424 45.4321 36.2244 45.4321 38.0835C44.9703 38.0835 44.5018 38.1073 44.0385 38.069C43.8991 38.0575 43.7551 37.8901 43.6455 37.7656C42.9992 37.032 42.3626 36.29 41.6366 35.4513C41.6366 36.3928 41.6366 37.2049 41.6366 38.0524C41.0766 38.0524 40.5658 38.0524 40.0282 38.0524C40.0282 36.2523 40.0282 34.4693 40.0282 32.6299C40.5055 32.6299 40.9609 32.6144 41.4138 32.6407C41.5289 32.6474 41.6566 32.7691 41.744 32.8684C42.1835 33.368 42.6115 33.8777 43.0656 34.4097Z" fill="white"/>
<path d="M24.649 21.8707C24.7753 21.8765 24.9018 21.8809 25.0281 21.8883C26.4637 21.9719 27.259 22.7061 27.4563 24.1294C27.6486 25.5162 27.1774 26.5814 26.1436 27.0638C25.9456 27.1562 25.7282 27.2209 25.5128 27.2587C25.2338 27.3077 24.948 27.3358 24.6647 27.3395C23.8781 27.35 23.0913 27.3431 22.2581 27.3431C22.2581 25.5242 22.2581 23.7555 22.3084 21.9394C23.1222 21.885 23.8856 21.8779 24.649 21.8707ZM23.9929 23.7583C23.9929 24.5103 23.9929 25.2624 23.9929 26.0482C24.2561 26.0482 24.4445 26.0603 24.6309 26.046C25.3484 25.991 25.6037 25.7116 25.6086 24.994C25.6107 24.6935 25.6142 24.393 25.6194 24.0926C25.6273 23.6294 25.3758 23.2881 24.9232 23.2263C24.6339 23.1868 24.3349 23.2189 24.0167 23.2189C24.0078 23.3876 24.0004 23.5267 23.9929 23.7583Z" fill="white"/>
<path d="M58.3213 38.0857C56.7898 38.0876 55.3038 38.0876 53.7865 38.0876C53.7865 36.2676 53.7865 34.4854 53.7865 32.6649C55.3233 32.6649 56.8658 32.6649 58.4393 32.6649C58.4393 33.0641 58.4393 33.4662 58.4393 33.9245C57.4702 33.9245 56.5127 33.9245 55.5271 33.9245C55.5271 34.1924 55.5271 34.4047 55.5271 34.6726C56.3586 34.6726 57.1743 34.6726 58.0212 34.6726C58.0212 35.113 58.0212 35.499 58.0212 35.9362C57.1999 35.9362 56.3827 35.9362 55.532 35.9362C55.532 36.2289 55.532 36.4714 55.532 36.7701C56.516 36.7701 57.4899 36.7701 58.604 36.7701C58.5163 37.2559 58.4416 37.6699 58.3213 38.0857Z" fill="white"/>
<path d="M22.0883 34.1544C21.578 34.2252 21.0705 34.2585 20.5626 34.28C20.5269 34.2815 20.4832 34.1982 20.4506 34.1493C20.167 33.7239 19.7801 33.5881 19.3235 33.7858C19.2093 33.8353 19.0463 33.9802 19.0569 34.0616C19.0731 34.1854 19.1991 34.348 19.3176 34.3948C19.595 34.5043 19.8963 34.5525 20.1867 34.6299C20.5228 34.7195 20.8632 34.7974 21.1917 34.9097C21.8126 35.1219 22.2347 35.5281 22.261 36.2163C22.2892 36.9545 22.0278 37.5776 21.314 37.8806C20.1733 38.3649 19.0158 38.3102 17.9084 37.7803C17.3219 37.4996 17.16 36.9264 17.1411 36.2846C17.6868 36.2846 18.2068 36.2846 18.7304 36.2846C19.0282 36.8998 19.2834 37.0443 19.9946 36.9127C20.1629 36.8815 20.304 36.703 20.4577 36.5922C20.3321 36.4702 20.2267 36.2848 20.0775 36.2375C19.5202 36.0609 18.9394 35.9572 18.3843 35.775C17.4233 35.4596 16.9838 34.6194 17.3376 33.7198C17.4558 33.4193 17.7037 33.0961 17.9805 32.9449C19.0313 32.3711 20.1347 32.3718 21.2268 32.8533C21.7631 33.0898 22.0622 33.5161 22.0883 34.1544Z" fill="white"/>
<path d="M44.7941 44.8458C44.7895 44.7795 44.7848 44.7131 44.7913 44.5672C44.8025 43.4104 44.8025 42.333 44.8025 41.2248C45.4336 41.2248 45.9668 41.2248 46.5 41.2248C46.5093 42.3006 46.5123 43.3766 46.5301 44.4524C46.5425 45.2041 47.1073 45.6208 47.8106 45.4041C48.268 45.2633 48.4524 44.9219 48.4527 44.4632C48.4534 43.4037 48.4529 42.3442 48.4529 41.2484C49.0378 41.2484 49.5991 41.2484 50.2309 41.2484C50.2309 41.7201 50.231 42.2053 50.2309 42.6906C50.2308 43.2448 50.238 43.7992 50.2289 44.3534C50.2068 45.7022 49.6533 46.46 48.3239 46.6604C47.6142 46.7674 46.8436 46.6676 46.1327 46.5129C45.4227 46.3583 44.9957 45.8028 44.8308 45.0151C44.8182 44.916 44.8062 44.8809 44.7941 44.8458Z" fill="white"/>
<path d="M27.2709 32.6643C28.298 33.0316 28.819 33.724 28.8363 34.8254C28.2926 34.8254 27.7623 34.8254 27.2301 34.8254C26.9457 34.0228 26.7374 33.8283 26.1713 33.8386C25.6506 33.848 25.3151 34.0869 25.2328 34.6001C25.1682 35.0029 25.1575 35.4224 25.1858 35.8301C25.2338 36.5216 25.5853 36.8739 26.1701 36.8922C26.7668 36.9109 27.1054 36.6071 27.2541 35.9009C27.7657 35.9009 28.2822 35.9009 28.7965 35.9009C28.8912 36.9401 28.2906 37.8505 27.246 38.0372C26.5619 38.1595 25.8257 38.138 25.1347 38.0345C24.3885 37.9228 23.8595 37.4181 23.5982 36.6901C23.2701 35.776 23.2685 34.8515 23.6266 33.9496C23.9726 33.0779 24.6968 32.6604 25.5829 32.5759C26.1259 32.5242 26.6832 32.6222 27.2709 32.6643Z" fill="white"/>
<path d="M50.4048 34.1097C49.5707 33.5499 48.7913 33.873 48.6701 34.8151C48.6221 35.1879 48.6303 35.5781 48.6808 35.9512C48.7622 36.5526 49.1079 36.8616 49.6402 36.8915C50.2018 36.923 50.5447 36.6486 50.711 36.0361C50.7232 35.9914 50.7425 35.9486 50.7586 35.9045C51.2813 35.9045 51.7989 35.9045 52.3153 35.9045C52.3372 37.172 51.5741 38.0091 50.2612 38.1492C49.8856 38.1892 49.4983 38.189 49.1229 38.1478C47.8168 38.0044 47.0583 37.2538 46.9173 35.943C46.8688 35.4919 46.8731 35.0227 46.9387 34.5744C47.0734 33.6548 47.5784 32.9934 48.4867 32.7092C49.3579 32.4367 50.2357 32.4253 51.0856 32.8005C51.9087 33.1638 52.3437 33.8968 52.3044 34.8334C51.7744 34.8334 51.2426 34.8334 50.7238 34.8334C50.6223 34.5931 50.5262 34.3657 50.4048 34.1097Z" fill="white"/>
<path d="M42.4704 26.5715C42.0666 26.5167 41.8106 26.6034 41.7642 27.0211C41.7377 27.2593 41.6018 27.3624 41.3441 27.3511C40.8875 27.3311 40.4294 27.3455 39.9175 27.3455C39.9655 27.1704 39.992 27.0386 40.0373 26.9136C40.5918 25.3812 41.156 23.8523 41.6999 22.3162C41.8095 22.0067 41.9465 21.8571 42.3039 21.8814C42.8386 21.9177 43.3776 21.8908 43.9254 21.8908C44.5826 23.6956 45.2306 25.4753 45.9101 27.3414C45.3073 27.3414 44.763 27.3574 44.2215 27.326C44.1289 27.3206 43.9997 27.1233 43.9712 26.996C43.8949 26.6543 43.7167 26.5289 43.3697 26.5654C43.0876 26.5952 42.7999 26.5715 42.4704 26.5715ZM42.6431 25.3557C42.891 25.3557 43.1388 25.3557 43.4644 25.3557C43.2636 24.6849 43.0853 24.0894 42.907 23.4939C42.6619 24.0327 42.5111 24.5643 42.3395 25.0891C42.2602 25.3318 42.3764 25.3634 42.6431 25.3557Z" fill="white"/>
<path d="M31.7235 26.5751C31.349 26.5722 31.0152 26.589 30.684 26.5673C30.2289 26.5375 29.8217 26.5374 29.7692 27.1485C29.763 27.221 29.5967 27.3319 29.5011 27.3357C29.0128 27.3547 28.5233 27.3445 27.9607 27.3445C28.0173 27.1532 28.0517 27.0095 28.1019 26.8715C28.664 25.326 29.2328 23.7828 29.7876 22.2347C29.8724 21.9982 29.9658 21.8676 30.2494 21.8836C30.7231 21.9103 31.2003 21.874 31.6739 21.9016C31.8095 21.9094 32.0158 22.0167 32.0574 22.1279C32.6786 23.7862 33.278 25.4527 33.8799 27.1182C33.8998 27.1732 33.893 27.2378 33.9029 27.3438C33.3635 27.3438 32.8437 27.3564 32.3256 27.3325C32.2283 27.328 32.1177 27.1911 32.0488 27.0909C31.9387 26.9305 31.8584 26.7497 31.7235 26.5751ZM31.248 24.4682C31.1527 24.1425 31.0574 23.8167 30.9621 23.491C30.9332 23.4949 30.9044 23.4987 30.8756 23.5026C30.6967 24.0975 30.5178 24.6923 30.3315 25.3117C30.7539 25.3117 31.1169 25.3117 31.5068 25.3117C31.4208 25.022 31.3491 24.7802 31.248 24.4682Z" fill="white"/>
<path d="M47.8822 50.7313C47.9015 51.1696 47.9208 51.6079 47.9429 52.1072C47.3313 52.1072 46.771 52.1072 46.164 52.1072C46.164 53.4895 46.164 54.8136 46.164 56.172C45.5555 56.172 44.9944 56.172 44.3796 56.172C44.3796 54.831 44.3796 53.5091 44.3796 52.1332C43.7667 52.1332 43.2046 52.1332 42.5815 52.1332C42.5815 51.6571 42.5815 51.2348 42.6352 50.7735C44.42 50.7335 46.1511 50.7324 47.8822 50.7313Z" fill="white"/>
<path d="M43.9727 46.644C42.489 46.644 41.0054 46.644 39.4513 46.644C39.4513 44.8572 39.4513 43.0942 39.491 41.2809C40.0756 41.2306 40.6204 41.2306 41.193 41.2306C41.193 42.4672 41.1885 43.6376 41.1988 44.8079C41.2001 44.9537 41.2801 45.0989 41.3236 45.2444C42.1771 45.2511 43.0306 45.2579 43.9351 45.3156C43.9816 45.7923 43.9771 46.2182 43.9727 46.644Z" fill="white"/>
<path d="M41.7151 55.2945C41.7151 55.6078 41.7151 55.8745 41.7151 56.1726C41.1288 56.1726 40.5834 56.1726 40.0052 56.1726C40.0052 54.3701 40.0052 52.5781 40.0052 50.7581C40.5575 50.7581 41.1028 50.7581 41.7151 50.7581C41.7151 52.2576 41.7151 53.7527 41.7151 55.2945Z" fill="white"/>
<path d="M30.3258 35.5018C30.3258 34.5359 30.3258 33.6175 30.3258 32.6638C30.9143 32.6638 31.473 32.6638 32.0562 32.6638C32.0562 34.4659 32.0562 36.2492 32.0562 38.06C31.4872 38.06 30.9406 38.06 30.3258 38.06C30.3258 37.2168 30.3258 36.3831 30.3258 35.5018Z" fill="white"/>
</svg>
